PathFileType	4	(X/Y/Z)	S00_P00_T01_BalancingTrial_0-100.trc
DataRate	CameraRate	NumFrames	NumMarkers	Units	OrigDataRate	OrigDataStartFrame	OrigNumFrames
60	60	7	21	m	60	12	100
Frame#	Time	RHip			RKnee			RAnkle			RBigToe			RSmallToe			RHeel			LHip			LKnee			LAnkle			LBigToe			LSmallToe			LHeel			Neck			Head			Nose			RShoulder			RElbow			RWrist			LShoulder			LElbow			LWrist		
		X1	Y1	Z1	X2	Y2	Z2	X3	Y3	Z3	X4	Y4	Z4	X5	Y5	Z5	X6	Y6	Z6	X7	Y7	Z7	X8	Y8	Z8	X9	Y9	Z9	X10	Y10	Z10	X11	Y11	Z11	X12	Y12	Z12	X13	Y13	Z13	X14	Y14	Z14	X15	Y15	Z15	X16	Y16	Z16	X17	Y17	Z17	X18	Y18	Z18	X19	Y19	Z19	X20	Y20	Z20	X21	Y21	Z21
13	0.2166666666666666	-0.1123183575275202	0.9267037397119469	-1.2777358904896072	-0.1196496005992988	0.5286504181478263	-1.2718771680630694	0.002825770327939535	0.1868557516749037	-1.564505748382878	-0.031052632540000347	0.07562834702826328	-1.4273916958048796	-0.03366301736738083	0.0870872771184113	-1.4862271977709565	0.0353272016219651	0.17320289908398095	-1.6053895650173446	0.05092824079451128	0.9020004396402679	-1.3161369826347824	0.00563932699155836	0.5095867559740321	-1.1270822105379528	-0.0019299900135762652	0.15999159782460526	-1.1688248424771748	-0.026104591235857733	0.08252435447135996	-0.9997358032196456	-0.0005473751723803935	0.10130810914890129	-1.0028183926401704	0.007744214710449371	0.12365201741934233	-1.1954548538704264	0.07950458004133792	1.4640224647437179	-1.262778441002858	0.11717933031278263	1.6934454388850069	-1.136985012817815	0.09333007470426669	1.5516742802549235	-1.085958355176457	-0.08842085441179807	1.4346689475860737	-1.315050064247686	-0.29476177005164367	1.2704460631836374	-1.3566969102682267	-0.422176370316916	1.1750024354419737	-1.1527404074704888	0.21646964044419786	1.3709117086629157	-1.316064794642633	0.3193486483873988	1.0977989971656519	-1.3222213648148764	0.3762859637365211	0.8517882927266435	-1.256284966366759
14	0.2333333333333333	-0.11628549816079747	0.9279248323809289	-1.2694939120885804	-0.13334606757018716	0.523896369626905	-1.2563014540296276	-0.009036060271371719	0.19523473125847204	-1.5524035329661139	-0.037382718464793976	0.0793265082778791	-1.4209660348047417	-0.040404475740527065	0.09169359710174267	-1.4769158791412011	0.02464992407900834	0.18567808086616108	-1.5916988622765413	0.04507804670099431	0.9005044281266914	-1.3079619475127204	-0.00035780932569261096	0.5110334717399896	-1.1176124002165866	-0.0023832227343604765	0.16038852699202633	-1.1661576187923648	-0.0195170724169947	0.08595543214979387	-1.0007186913771664	0.0021992407723149913	0.09899369747481188	-1.0061722756929958	0.007875729926254658	0.12189131913445463	-1.2015193619407247	0.09044867615964346	1.4613366006979176	-1.2510955066407223	0.13367021371094306	1.6911187826608818	-1.1211964684985782	0.10765246917418848	1.5472744536184506	-1.0804066534664418	-0.07964229688577537	1.4351711178877264	-1.306553619663371	-0.2934170371244155	1.284888808847069	-1.3423323045147988	-0.4264180377134245	1.2088304732693902	-1.1351707098672867	0.22384918992325775	1.362289784022314	-1.302989532963778	0.32488199378833704	1.0876634623315031	-1.305994865046519	0.37688024176645807	0.8420160151521954	-1.2340629585065988
15	0.25	-0.12045696664578451	0.9295676639766365	-1.2616901379118497	-0.14879027923365118	0.5207668748532011	-1.2400919433399153	-0.022806688128699328	0.2050520511023598	-1.5364524684355036	-0.04765529937792356	0.08474292446794703	-1.411467026808784	-0.05118714582550788	0.09812575352695965	-1.4639001095298299	0.011727108758662867	0.19776819416358332	-1.5769914278667032	0.03884571858108531	0.8987120200069306	-1.3003672728885518	-0.00701875398508705	0.5109518714326977	-1.106947955080553	-0.0035221827152094333	0.15872702471401506	-1.164665730875237	-0.013708286405087457	0.08833121734232421	-1.0018594928295208	0.005488850297403819	0.09554214285029887	-1.0114002925915606	0.007583374490754912	0.11900559585587053	-1.2069020135688362	0.100576483746382	1.4574552620111636	-1.2405280144152886	0.15017684166419995	1.6885809368987623	-1.104126192369777	0.12033724639326662	1.5422656966563772	-1.0734777635835167	-0.06977133506623334	1.4352909960241278	-1.2985863232917272	-0.29005298350300196	1.2990178972133772	-1.3265903360642346	-0.4280485185805841	1.2427776594295055	-1.1184721581813455	0.2338031765298138	1.352545654707999	-1.2865842171807338	0.3298478679935289	1.0768131924741797	-1.2897196617236304	0.3761815696291091	0.8320930200724053	-1.2124557879878717
16	0.2666666666666666	-0.12466974448002126	0.9316909260160657	-1.2542090989080603	-0.1669031716106687	0.5209035183346014	-1.2215766642422732	-0.03883542023074477	0.21585430291517896	-1.5165311916025914	-0.0629459473735148	0.09168727957236303	-1.3983143580858954	-0.06686462702966503	0.1060100919484325	-1.4472390151135215	-0.0032721589532541794	0.2087573727239755	-1.5607560873178261	0.03246556803957214	0.8966059832014163	-1.2932219274341166	-0.015099791743690694	0.5094943840056897	-1.096827407147153	-0.005183404501829324	0.1547189796762484	-1.1652723091692696	-0.008841322708668515	0.08972146602666985	-1.0029344822247575	0.009874751577209673	0.09205273070018885	-1.0174616273031774	0.0070165336785353956	0.11502498966112042	-1.2123395429760815	0.10995335585592791	1.452576578479722	-1.2308766151513373	0.16655384534260864	1.6854673353817937	-1.0876639144989533	0.13143703019093816	1.5368864759991372	-1.0643379919098734	-0.05920506136413388	1.4352919593771174	-1.291469535909818	-0.28469972259980986	1.3125421587368151	-1.310334529166891	-0.42657739432036873	1.2760705817770004	-1.101866350978833	0.2456700701965682	1.342299170856496	-1.2679774769686727	0.3339232997519629	1.0658300237780913	-1.2738612696232428	0.3745318424416156	0.8218982543235516	-1.1935873212844483
17	0.2833333333333333	-0.12885582394501013	0.9341849033176204	-1.2468134328030591	-0.1877990833535587	0.5245871151661964	-1.2014155823671935	-0.05767708619526294	0.2268487599261445	-1.4932502660032287	-0.08361380786470465	0.09958925710195464	-1.3813647507521103	-0.08805900875228996	0.11471219781525988	-1.4274123111295287	-0.02038532269655246	0.2182536465614629	-1.5425455937493375	0.02649704524135631	0.8943152592934951	-1.2862565362409537	-0.024594180455634364	0.5072205707434453	-1.088258240726262	-0.007069324660846778	0.14920665349512813	-1.1676104320968648	-0.0053511928331742885	0.09050960453675794	-1.0035121252553711	0.015178794986709513	0.08885849422430178	-1.0241482955751129	0.006442686994748536	0.11066173940753445	-1.2182574939254218	0.11886113676267329	1.4470755765646413	-1.2214012482240237	0.18206834240776115	1.6811839557131882	-1.0737454393625199	0.14102958078473457	1.5312429505096834	-1.0534837818278477	-0.048431237996667154	1.435437404227524	-1.2842425645406896	-0.2777873703244059	1.3253522185562716	-1.2946807407695282	-0.4220946955909593	1.307685484783819	-1.0855549271778053	0.257748630628889	1.332440582619797	-1.249315983760754	0.33697214828397376	1.055226996421609	-1.2582720426220317	0.3724310565391735	0.8115720352673836	-1.1785497331495978
18	0.3	-0.13299370488172088	0.9369382245917688	-1.2393683587597426	-0.2110610100250583	0.531410658760322	-1.1812826047692104	-0.07976248928212551	0.23726745930120285	-1.468047778655137	-0.10896483788667953	0.10759842048978598	-1.3605315495642454	-0.11490788557456462	0.12346436059429869	-1.4050451208926233	-0.03970257338955514	0.22584606771623655	-1.5222814490632328	0.021619598979671754	0.8920990700808401	-1.2791152083068256	-0.03472762267403073	0.5048527795684083	-1.0807918533571463	-0.00897123468071303	0.14356456475381243	-1.1704137555642504	-0.00378559118229025	0.09110096193882912	-1.0031301266965598	0.020473075457791708	0.08637347054072715	-1.030633577722414	0.0058473686843951685	0.10705314844449598	-1.223759532473184	0.1276334663542841	1.4413931886062112	-1.2113785727911086	0.19584083785214781	1.6752236484154326	-1.0632544583986674	0.14938273013377557	1.5253546298300242	-1.0420805188212527	-0.037980141611269155	1.4357085808847665	-1.2762826729849395	-0.2699708617696165	1.3372377891850487	-1.2806965833760162	-0.4150120210433825	1.3365324578628839	-1.0710459335291922	0.2684655321692961	1.3235491932796266	-1.2321948907098574	0.3391245345393731	1.045305312284535	-1.2424497218728203	0.3700825166633389	0.8014550055593465	-1.1671656087934876
19	0.3166666666666666	-0.13705775164612796	0.9398714063017325	-1.2319381598586487	-0.23587993522219008	0.5406940074647134	-1.1624018658396782	-0.10514341198918342	0.24628636613366453	-1.4426253040033274	-0.13744315718984076	0.11480908639238557	-1.3356367908150817	-0.14680967754609395	0.13140050524249355	-1.3805358285703888	-0.06163366945141625	0.23115289149149307	-1.5006371396454772	0.0182978947292945	0.890154780417052	-1.2713317071048458	-0.04399417006259242	0.5031328792362139	-1.0725898410496366	-0.010836134668823048	0.13889613154486916	-1.1724355039859347	-0.003944361219547802	0.09158877451207824	-1.001807629395781	0.02478167943186618	0.08501188945155917	-1.0356865081856796	0.0047922663498286035	0.10487505498251565	-1.227203149407211	0.1364299369088952	1.4358357986634551	-1.2006703792209832	0.20740797940645603	1.6674412429136651	-1.0557438274677609	0.15703188714037222	1.5191665984751874	-1.0310350776731247	-0.0282287429784613	1.435865105986172	-1.267797872421102	-0.2616910838949185	1.3477865162703617	-1.2692030065405642	-0.4058612264863934	1.3620602009674385	-1.0606927765279766	0.2771128317146429	1.315712968231625	-1.2171746561626888	0.3407215168404027	1.0361266827455644	-1.226057775174589	0.3673091252119202	0.7921221210723627	-1.1583256682416316
